HIERARCHY
ROOT Hips
{
	OFFSET 52.730202 -49.935116 85.969589
	CHANNELS 6 Xposition Yposition Zposition Xrotation Yrotation Zrotation
	JOINT spine
	{
		OFFSET 0.000000 -0.367607 6.392601
		CHANNELS 3 Xrotation Yrotation Zrotation
		JOINT spine1
		{
			OFFSET 0.000000 0.000000 9.176109
			CHANNELS 3 Xrotation Yrotation Zrotation
			JOINT spine2
			{
				OFFSET 0.000000 -0.000004 8.792381
				CHANNELS 3 Xrotation Yrotation Zrotation
				JOINT Neck
				{
					OFFSET 0.000000 -1.076244 22.573692
					CHANNELS 3 Xrotation Yrotation Zrotation
					JOINT Head
					{
						OFFSET 0.000000 0.000000 6.820114
						CHANNELS 3 Xrotation Yrotation Zrotation
						End Site
						{
							OFFSET 0.000000 5.444267 16.508514
						}
					}
				}
				JOINT RightShoulder
				{
					OFFSET -3.702209 0.515507 9.495087
					CHANNELS 3 Xrotation Yrotation Zrotation
					JOINT RightArm
					{
						OFFSET 0.000000 -0.000004 12.453697
						CHANNELS 3 Xrotation Yrotation Zrotation
						JOINT RightArmRoll
						{
							OFFSET 0.000000 0.000000 6.286865
							CHANNELS 3 Xrotation Yrotation Zrotation
							JOINT RightForeArm
							{
								OFFSET 0.000000 -0.000004 18.311401
								CHANNELS 3 Xrotation Yrotation Zrotation
								JOINT RightForeArmRoll
								{
									OFFSET 0.000000 0.000000 7.054825
									CHANNELS 3 Xrotation Yrotation Zrotation
									JOINT RightHand
									{
										OFFSET 0.000000 -0.000004 14.157501
										CHANNELS 3 Xrotation Yrotation Zrotation
										End Site
										{
											OFFSET 0.000000 0.000000 0.100006
										}
									}
								}
							}
						}
					}
				}
				JOINT LeftShoulder
				{
					OFFSET 3.702209 0.515507 9.495087
					CHANNELS 3 Xrotation Yrotation Zrotation
					JOINT LeftArm
					{
						OFFSET 0.000000 -0.000004 12.453697
						CHANNELS 3 Xrotation Yrotation Zrotation
						JOINT LeftArmRoll
						{
							OFFSET 0.000000 0.000000 6.286865
							CHANNELS 3 Xrotation Yrotation Zrotation
							JOINT LeftForeArm
							{
								OFFSET 0.000000 -0.000004 18.311401
								CHANNELS 3 Xrotation Yrotation Zrotation
								JOINT LeftForeArmRoll
								{
									OFFSET 0.000000 0.000000 7.054825
									CHANNELS 3 Xrotation Yrotation Zrotation
									JOINT LeftHand
									{
										OFFSET 0.000000 -0.000004 14.157501
										CHANNELS 3 Xrotation Yrotation Zrotation
										End Site
										{
											OFFSET 0.000000 0.000000 0.100006
										}
									}
								}
							}
						}
					}
				}
			}
		}
	}
	JOINT RightUpLeg
	{
		OFFSET -5.666161 0.871609 -1.039032
		CHANNELS 3 Xrotation Yrotation Zrotation
		JOINT RightUpLegRoll
		{
			OFFSET 0.000000 0.000000 16.600502
			CHANNELS 3 Xrotation Yrotation Zrotation
			JOINT RightLeg
			{
				OFFSET 0.000000 0.000004 -20.557198
				CHANNELS 3 Xrotation Yrotation Zrotation
				JOINT RightLegRoll
				{
					OFFSET 0.000000 -0.000004 20.624397
					CHANNELS 3 Xrotation Yrotation Zrotation
					JOINT RightFoot
					{
						OFFSET 0.000000 -0.000004 17.166397
						CHANNELS 3 Xrotation Yrotation Zrotation
						JOINT RightToeBase
						{
							OFFSET 0.000000 -0.000004 14.350197
							CHANNELS 3 Xrotation Yrotation Zrotation
							End Site
							{
								OFFSET 0.006081 0.801060 6.949707
							}
						}
					}
				}
			}
		}
	}
	JOINT LeftUpLeg
	{
		OFFSET 5.666161 0.871609 -1.039032
		CHANNELS 3 Xrotation Yrotation Zrotation
		JOINT LeftUpLegRoll
		{
			OFFSET 0.000000 0.000000 16.600601
			CHANNELS 3 Xrotation Yrotation Zrotation
			JOINT LeftLeg
			{
				OFFSET 0.000000 -0.000004 20.557098
				CHANNELS 3 Xrotation Yrotation Zrotation
				JOINT LeftLegRoll
				{
					OFFSET 0.000000 -0.000004 20.815094
					CHANNELS 3 Xrotation Yrotation Zrotation
					JOINT LeftFoot
					{
						OFFSET 0.000000 -0.000004 16.975693
						CHANNELS 3 Xrotation Yrotation Zrotation
						JOINT LeftToeBase
						{
							OFFSET 0.000000 0.000000 14.350204
							CHANNELS 3 Xrotation Yrotation Zrotation
							End Site
							{
								OFFSET -0.027260 0.801056 6.949707
							}
						}
					}
				}
			}
		}
	}
}
MOTION
Frames: 7
Frame Time: 0.041667
52.560303 -9.706875 56.035393 -10.612936 -3.874548 2.513084 -0.982330 1.175638 -0.785730 2.064992 2.347297 -1.563050 3.710387 2.328255 -1.591173 20.117692 -4.122510 2.196580 -1.231048 4.459573 1.998299 16.303537 -73.377187 15.973393 -66.290387 -109.371942 -86.749037 -0.000001 0.000021 0.000008 58.188465 -10.947766 5.776002 -0.000000 0.000005 -3.000000 -4.999914 -7.998777 0.000029 -6.549469 66.784490 8.337778 -65.248080 111.137416 84.169603 -0.000005 0.000008 -0.000001 54.008276 14.728236 -4.653987 0.000003 -0.000002 3.000001 -4.999644 7.998718 0.000022 -70.104645 -168.619189 2.717417 179.999991 -0.000004 -1.065996 105.280830 0.289674 -2.386860 -0.000004 -0.000002 1.192320 66.284418 6.868959 2.352387 25.457165 -7.355620 0.000336 -69.102834 172.836188 -2.277456 -0.000004 -0.000003 -1.181200 -75.217786 -0.466466 1.599550 -0.000008 0.000005 -1.447561 64.365066 -7.102903 -1.932085 25.457867 7.355615 -0.001380 
52.563103 -9.704468 56.035698 -10.607953 -3.876842 2.514523 -0.982760 1.175947 -0.786316 2.063392 2.348359 -1.564253 3.708789 2.329317 -1.592377 20.132678 -4.120257 2.195933 -1.233496 4.454439 1.998228 16.308694 -73.382781 15.977841 -66.296077 -109.371724 -86.751086 -0.000003 0.000022 0.000009 58.189319 -10.947105 5.775183 -0.000001 -0.000001 -3.000003 -4.999917 -7.998770 0.000029 -6.519466 66.787051 8.304030 -65.263612 111.132977 84.179814 -0.000007 0.000011 -0.000002 54.005776 14.727966 -4.653715 0.000002 -0.000003 2.999999 -4.999641 7.998720 0.000019 -70.112896 -168.615227 2.716173 179.999991 -0.000004 -1.065996 105.278931 0.289639 -2.386850 -0.000004 -0.000002 1.192321 66.283687 6.868940 2.352429 25.457163 -7.355622 0.000335 -69.109370 172.839877 -2.278553 -0.000004 -0.000003 -1.181200 -75.219849 -0.465390 1.600102 -0.000008 0.000005 -1.447560 64.365783 -7.102906 -1.932036 25.457870 7.355614 -0.001379 
52.569904 -9.698048 56.027306 -10.602973 -3.879265 2.515930 -0.983224 1.176217 -0.786878 2.061712 2.349381 -1.565421 3.707102 2.330339 -1.593544 20.147443 -4.117135 2.195112 -1.235766 4.448508 1.998037 16.311376 -73.387739 15.979757 -66.299055 -109.371812 -86.750082 -0.000003 0.000022 0.000009 58.189947 -10.946395 5.774151 -0.000002 0.000000 -3.000001 -4.999917 -7.998776 0.000028 -6.488059 66.789346 8.268693 -65.276890 111.128380 84.187300 -0.000006 0.000009 -0.000002 54.002986 14.727527 -4.653362 0.000003 -0.000003 3.000003 -4.999643 7.998718 0.000020 -70.121256 -168.610856 2.714487 179.999991 -0.000005 -1.065996 105.276827 0.289599 -2.386839 -0.000004 -0.000002 1.192320 66.282956 6.868964 2.352480 25.457162 -7.355620 0.000334 -69.115675 172.843893 -2.280801 -0.000003 -0.000004 -1.181200 -75.222021 -0.464206 1.600708 -0.000009 0.000005 -1.447561 64.366412 -7.102883 -1.932192 25.457867 7.355613 -0.001379 
52.567005 -9.703400 56.027493 -10.597994 -3.881776 2.517330 -0.983713 1.176477 -0.787424 2.059964 2.350383 -1.566555 3.705352 2.331332 -1.594697 20.161885 -4.113400 2.194153 -1.237910 4.442006 1.997753 16.312319 -73.392213 15.979885 -66.300073 -109.372099 -86.747098 -0.000001 0.000022 0.000006 58.190562 -10.945641 5.773133 -0.000003 -0.000001 -3.000001 -4.999917 -7.998776 0.000027 -6.455737 66.791470 8.232292 -65.288904 111.123681 84.193160 -0.000006 0.000008 -0.000000 53.999930 14.726972 -4.652911 0.000002 -0.000003 3.000001 -4.999644 7.998719 0.000021 -70.129801 -168.606170 2.712130 179.999991 -0.000004 -1.065996 105.274730 0.289561 -2.387826 -0.000003 -0.000002 1.192320 66.282314 6.868919 2.352510 25.457162 -7.355620 0.000334 -69.122204 172.847581 -2.282086 -0.000003 -0.000002 -1.181200 -75.224186 -0.462942 1.601386 -0.000008 0.000005 -1.447560 64.367136 -7.102881 -1.932142 25.457862 7.355613 -0.001379 
52.569305 -9.701019 56.016193 -10.593012 -3.884346 2.518729 -0.984208 1.176717 -0.787959 2.058174 2.351354 -1.567687 3.703563 2.332304 -1.595817 20.176217 -4.109323 2.193122 -1.239983 4.435175 1.997416 16.312239 -73.396468 15.978968 -66.300073 -109.372543 -86.743034 -0.000001 0.000020 0.000011 58.191074 -10.944904 5.772200 -0.000002 -0.000001 -3.000002 -4.999917 -7.998780 0.000028 -6.422854 66.793526 8.195251 -65.299935 111.118934 84.197914 -0.000005 0.000008 -0.000001 53.996866 14.726357 -4.652478 0.000003 -0.000002 2.999999 -4.999642 7.998718 0.000019 -70.138154 -168.601799 2.710840 179.999991 -0.000005 -1.065997 105.272531 0.289520 -2.387815 -0.000004 -0.000002 1.192319 66.281597 6.868943 2.352462 25.457163 -7.355621 0.000335 -69.128515 172.851597 -2.284334 -0.000005 -0.000004 -1.181200 -75.226447 -0.461631 1.602086 -0.000008 0.000005 -1.447562 64.367867 -7.102879 -1.932195 25.457862 7.355613 -0.001378 
52.570305 -9.702675 56.015999 -10.587935 -3.886927 2.520124 -0.984711 1.176957 -0.788492 2.056382 2.352337 -1.568808 3.701774 2.333277 -1.596946 20.190550 -4.105162 2.192074 -1.242039 4.428262 1.997066 16.311931 -73.400635 15.977824 -66.299943 -109.372892 -86.738751 -0.000002 0.000021 0.000006 58.191586 -10.944117 5.771074 -0.000002 -0.000000 -3.000003 -4.999917 -7.998776 0.000027 -6.389843 66.795569 8.158069 -65.310972 111.114187 84.202579 -0.000004 0.000008 -0.000003 53.993684 14.725722 -4.651934 0.000003 -0.000001 3.000001 -4.999640 7.998718 0.000019 -70.146698 -168.597127 2.708794 179.999991 -0.000005 -1.065996 105.270325 0.289479 -2.387804 -0.000004 -0.000001 1.192320 66.280859 6.868928 2.352504 25.457163 -7.355620 0.000335 -69.134943 172.855245 -2.285746 -0.000004 -0.000003 -1.181200 -75.228598 -0.460312 1.602798 -0.000009 0.000005 -1.447560 64.368597 -7.102877 -1.932147 25.457865 7.355615 -0.001380 
52.575104 -9.699627 56.032784 -10.582953 -3.889478 2.521518 -0.985205 1.177206 -0.789029 2.054603 2.353319 -1.569930 3.699996 2.334259 -1.598078 20.204987 -4.101178 2.191064 -1.244133 4.421510 1.996751 16.312146 -73.404972 15.977213 -66.300189 -109.373295 -86.734954 -0.000002 0.000022 0.000010 58.192194 -10.943361 5.770057 -0.000001 0.000001 -3.000000 -4.999920 -7.998776 0.000026 -6.357072 66.797597 8.121159 -65.322618 111.109440 84.207975 -0.000005 0.000009 -0.000003 53.990613 14.725111 -4.651493 0.000002 -0.000000 3.000001 -4.999642 7.998720 0.000021 -70.155250 -168.592442 2.706547 179.999991 -0.000005 -1.065996 105.268228 0.289443 -2.387794 -0.000004 -0.000002 1.192319 66.280128 6.868907 2.352546 25.457162 -7.355620 0.000334 -69.141254 172.859261 -2.287998 -0.000004 -0.000003 -1.181200 -75.230763 -0.459018 1.603500 -0.000009 0.000005 -1.447560 64.369226 -7.102902 -1.932113 25.457865 7.355615 -0.001379 
